<?xml version="1.0" encoding="UTF-8" standalone="no"?>
<!DOCTYPE svg PUBLIC "-//W3C//DTD SVG 20010904//EN"
              "http://www.w3.org/TR/2001/REC-SVG-20010904/DTD/svg10.dtd">

<svg xmlns="http://www.w3.org/2000/svg"
     width="135.45mm" height="135.45mm"
     viewBox="0 0 512 512">
  <path id="Selection"
        fill="white" stroke="black" stroke-width="1"
        d="M 63.00,72.52
           C 66.34,71.99 67.67,72.00 71.00,72.00
             77.03,71.99 80.09,71.81 86.00,73.75
             114.68,83.14 125.93,119.01 143.00,133.56
             154.42,143.29 171.76,151.69 185.00,159.81
             210.12,175.23 242.27,200.88 254.69,228.00
             267.25,255.43 260.70,290.82 229.00,301.25
             222.67,303.33 218.61,303.99 212.00,304.00
             212.00,304.00 169.00,304.00 169.00,304.00
             164.76,304.01 159.73,303.86 156.23,306.70
             151.24,310.74 153.16,317.02 160.00,319.20
             162.85,320.10 166.04,320.00 169.00,320.00
             169.00,320.00 359.00,320.00 359.00,320.00
             366.26,319.99 378.43,319.76 372.65,309.00
             372.65,309.00 370.07,305.00 370.07,305.00
             362.53,294.78 347.13,289.80 336.00,283.69
             325.57,277.96 316.67,268.99 311.87,258.00
             309.14,251.74 308.38,246.71 307.92,240.00
             306.34,216.88 317.51,202.92 328.80,184.00
             328.80,184.00 355.80,138.00 355.80,138.00
             365.75,121.38 374.36,105.82 396.00,104.18
             407.67,103.30 420.20,109.79 427.08,119.00
             432.11,125.74 434.88,133.41 438.30,141.00
             438.30,141.00 456.42,183.00 456.42,183.00
             456.42,183.00 493.69,278.00 493.69,278.00
             500.20,296.30 511.97,330.26 512.00,349.00
             512.00,349.00 512.00,360.00 512.00,360.00
             511.91,367.80 509.31,377.77 506.40,385.00
             493.80,416.18 463.28,439.95 429.00,440.00
             429.00,440.00 99.00,440.00 99.00,440.00
             99.00,440.00 68.00,440.00 68.00,440.00
             68.00,440.00 51.00,440.00 51.00,440.00
             30.49,439.97 8.59,428.43 2.03,408.00
             -0.43,400.34 -0.09,395.86 0.00,388.00
             0.11,378.54 3.32,372.01 8.01,364.00
             9.92,360.73 14.66,354.70 14.08,351.00
             14.08,351.00 5.78,334.00 5.78,334.00
             1.95,325.82 0.01,317.01 0.00,308.00
             0.00,308.00 0.00,266.00 0.00,266.00
             0.00,266.00 1.00,247.00 1.00,247.00
             1.00,247.00 2.83,224.00 2.83,224.00
             5.51,195.96 8.19,174.71 14.21,147.00
             20.01,120.31 33.91,80.33 63.00,72.52 Z
           M 176.00,424.00
           C 176.00,424.00 417.00,424.00 417.00,424.00
             447.01,423.95 472.77,412.51 487.36,385.00
             491.87,376.50 494.95,366.66 495.00,357.00
             495.00,357.00 495.00,350.00 495.00,350.00
             494.97,333.54 485.36,307.09 480.00,291.00
             467.33,253.00 451.66,215.84 436.00,179.00
             436.00,179.00 419.86,142.00 419.86,142.00
             416.51,134.43 413.10,126.60 405.00,122.97
             392.61,117.42 382.44,127.09 376.45,137.00
             376.45,137.00 340.00,199.00 340.00,199.00
             332.82,210.97 324.14,222.41 324.75,237.00
             326.37,276.28 367.52,267.36 386.93,299.00
             394.99,312.13 393.95,328.00 378.00,334.52
             374.08,336.12 371.11,335.99 367.00,336.00
             367.00,336.00 162.00,336.00 162.00,336.00
             157.06,335.99 153.52,336.04 149.00,333.59
             132.57,324.65 131.47,303.72 146.00,292.39
             151.37,288.21 155.55,288.01 162.00,288.00
             162.00,288.00 201.00,288.00 201.00,288.00
             208.61,287.99 219.09,286.89 226.00,283.68
             246.81,274.00 247.13,252.36 238.51,234.00
             232.31,220.79 221.79,210.34 211.00,200.85
             193.78,185.68 185.50,180.17 166.00,168.60
             149.62,158.89 136.18,153.03 123.30,138.00
             123.30,138.00 95.96,101.00 95.96,101.00
             89.49,94.26 83.74,89.25 74.00,89.01
             54.01,88.53 45.01,109.00 38.81,125.00
             31.21,144.62 26.74,170.12 23.73,191.00
             20.83,211.13 18.23,233.74 18.00,254.00
             18.00,254.00 17.00,269.00 17.00,269.00
             17.00,269.00 17.00,306.00 17.00,306.00
             17.02,315.65 18.82,322.42 23.32,331.00
             26.95,337.93 32.31,344.82 31.95,353.00
             31.60,361.11 24.66,369.03 20.90,376.00
             14.90,387.12 15.18,402.45 24.18,411.91
             33.73,421.94 48.85,423.84 62.00,424.00
             62.00,424.00 160.00,424.00 160.00,424.00
             160.00,424.00 160.00,408.00 160.00,408.00
             160.00,408.00 55.00,408.00 55.00,408.00
             46.33,407.99 34.04,405.27 32.23,395.00
             30.83,387.10 35.64,381.32 39.40,375.00
             44.37,366.64 47.00,361.90 47.00,352.00
             47.00,331.49 32.10,326.59 32.00,305.00
             32.00,305.00 32.00,277.00 32.00,277.00
             32.00,277.00 33.00,257.00 33.00,257.00
             33.00,257.00 33.91,247.00 33.91,247.00
             33.91,247.00 35.83,224.00 35.83,224.00
             38.67,194.72 42.36,165.46 50.15,137.00
             52.35,128.96 56.98,116.30 62.33,110.02
             65.41,106.39 68.96,103.50 74.00,104.24
             79.68,105.07 84.47,110.84 87.92,115.00
             87.92,115.00 113.29,150.00 113.29,150.00
             126.85,165.59 147.46,175.15 165.00,185.60
             181.67,195.54 203.16,212.35 215.70,227.00
             225.63,238.60 238.96,263.26 217.00,270.89
             213.47,272.12 210.64,271.99 207.00,272.00
             207.00,272.00 178.00,272.00 178.00,272.00
             160.72,272.00 144.02,271.28 131.17,285.04
             127.43,289.04 124.46,293.78 122.75,299.00
             120.88,304.69 120.94,308.14 121.00,314.00
             121.18,329.49 131.40,343.65 146.00,348.91
             151.84,351.01 161.74,351.99 168.00,352.00
             168.00,352.00 362.00,352.00 362.00,352.00
             386.22,351.71 407.31,341.15 407.00,314.00
             406.75,292.40 389.87,274.99 372.00,265.31
             361.46,259.60 346.55,255.95 341.36,244.00
             337.13,234.25 341.62,226.28 346.42,218.00
             346.42,218.00 370.00,178.00 370.00,178.00
             370.00,178.00 387.01,149.00 387.01,149.00
             389.14,145.47 392.31,140.45 397.00,140.45
             403.69,140.45 406.91,149.96 409.14,155.00
             409.14,155.00 430.58,205.00 430.58,205.00
             430.58,205.00 464.05,291.00 464.05,291.00
             471.32,310.89 480.25,334.78 480.00,356.00
             479.67,383.44 453.04,407.96 426.00,408.00
             426.00,408.00 176.00,408.00 176.00,408.00
             176.00,408.00 176.00,424.00 176.00,424.00 Z
           M 74.00,124.00
           C 69.35,128.70 68.07,135.80 66.29,142.00
             62.31,155.85 58.88,175.58 56.87,190.00
             56.87,190.00 50.91,245.00 50.91,245.00
             50.91,245.00 50.00,255.00 50.00,255.00
             50.00,255.00 49.00,274.00 49.00,274.00
             49.00,274.00 49.00,303.00 49.00,303.00
             49.02,315.36 53.60,318.43 58.74,329.00
             62.55,336.83 63.99,342.32 64.00,351.00
             64.01,359.97 63.49,364.63 59.69,373.00
             59.69,373.00 50.00,391.00 50.00,391.00
             50.00,391.00 64.00,392.00 64.00,392.00
             64.00,392.00 173.00,392.00 173.00,392.00
             173.00,392.00 369.00,392.00 369.00,392.00
             369.00,392.00 407.00,392.00 407.00,392.00
             416.19,392.00 427.15,392.20 436.00,389.56
             451.60,384.91 462.81,370.26 463.00,354.00
             463.00,354.00 463.00,350.00 463.00,350.00
             462.90,342.18 459.37,330.64 457.02,323.00
             457.02,323.00 444.05,285.00 444.05,285.00
             444.05,285.00 415.60,213.00 415.60,213.00
             415.60,213.00 396.00,168.00 396.00,168.00
             391.87,172.93 388.70,179.43 385.40,185.00
             392.01,188.28 366.82,217.12 366.58,217.00
             364.20,221.10 356.74,231.63 357.42,235.98
             358.16,240.77 365.12,243.31 369.00,245.25
             381.29,251.39 389.45,254.73 399.96,264.29
             424.84,286.91 434.81,326.10 408.91,351.91
             404.10,356.70 398.11,360.35 392.00,363.22
             384.34,366.82 378.40,367.99 370.00,368.00
             370.00,368.00 158.00,368.00 158.00,368.00
             129.46,367.96 104.04,342.54 104.15,314.00
             104.15,314.00 104.15,303.00 104.15,303.00
             105.88,292.01 112.52,280.06 120.29,272.29
             130.23,262.34 143.90,256.02 158.00,256.00
             158.00,256.00 212.00,255.00 212.00,255.00
             208.99,242.17 201.08,235.62 192.00,226.96
             165.44,201.65 149.92,198.55 123.00,180.25
             100.21,164.77 89.43,145.72 74.00,124.00 Z" />
</svg>
